<svg xmlns="http://www.w3.org/2000/svg" fill="none" viewBox="0 0 106 34" class="design-iconfont">
  <g clip-path="url(#9d0vjqt5r__clip0_96_4089)">
    <path fill-rule="evenodd" clip-rule="evenodd" d="M72.7068 15.9246H74.7668C74.8049 15.9301 74.8438 15.9264 74.8803 15.9138C74.9169 15.9013 74.95 15.8802 74.9773 15.8522C75.0045 15.8243 75.0251 15.7902 75.0373 15.7527C75.0496 15.7152 75.0532 15.6753 75.0478 15.6362V9.18744H80.4734V15.6362C80.4777 15.7113 80.5086 15.7821 80.5605 15.8353C80.6123 15.8885 80.6813 15.9203 80.7545 15.9246H82.8892C82.9817 15.9246 83.0777 15.8297 83.0777 15.6362V7.65013C83.0737 7.60019 83.0525 7.55331 83.018 7.51788C82.9835 7.48244 82.9378 7.46074 82.8892 7.45659H79.1499V5.4409H82.8927C82.9852 5.4409 83.0813 5.34229 83.0813 5.15241V3.98026C83.0813 3.88167 82.9852 3.69177 82.8927 3.69177H72.7068C72.6334 3.69532 72.5639 3.72686 72.5119 3.78021C72.46 3.83356 72.4292 3.9049 72.4258 3.98026V5.13418C72.4204 5.17334 72.4241 5.21321 72.4363 5.2507C72.4485 5.28819 72.4691 5.32228 72.4963 5.35023C72.5236 5.37819 72.5568 5.39927 72.5933 5.41184C72.6298 5.4244 72.6687 5.42809 72.7068 5.42262H76.3571V7.44197H72.7068C72.5183 7.44197 72.4258 7.54057 72.4258 7.63551V15.6215C72.4179 15.6618 72.4196 15.7034 72.4307 15.7428C72.4418 15.7822 72.462 15.8184 72.4896 15.8481C72.5171 15.8778 72.5513 15.9003 72.5891 15.9136C72.6269 15.9269 72.6673 15.9307 72.7068 15.9246Z" fill="#333"/>
    <path fill-rule="evenodd" clip-rule="evenodd" d="M75.0478 18.2215L73.55 16.9726L72.6143 17.7431L75.7024 20.8214C75.7024 20.8214 77.3852 16.7791 80.0998 14.1828L79.8187 13.7008C79.8187 13.7008 76.6381 16.2131 75.0478 18.2215Z" fill="#333"/>
    <path fill-rule="evenodd" clip-rule="evenodd" d="M78.7941 10.345H76.7306C76.6822 10.3483 76.6366 10.3692 76.602 10.4041C76.5674 10.4389 76.5461 10.4853 76.542 10.5348V16.308C77.3852 15.4426 78.4134 14.5771 79.0716 14.0002V10.5531C79.0716 10.4399 78.9755 10.345 78.7941 10.345Z" fill="#333"/>
    <path fill-rule="evenodd" clip-rule="evenodd" d="M69.619 6.87961H71.6789C71.5534 5.76078 71.0573 4.72016 70.2737 3.93182C69.49 3.14347 68.4664 2.65523 67.374 2.54883V4.57183C67.9392 4.66032 68.4619 4.93203 68.8658 5.34725C69.2697 5.76248 69.5336 6.29943 69.619 6.87961Z" fill="#333"/>
    <path fill-rule="evenodd" clip-rule="evenodd" d="M66.5308 4.57183V2.54883C65.4437 2.64479 64.4247 3.1321 63.6539 3.92459C62.8831 4.71709 62.41 5.76375 62.3184 6.87961H64.2858C64.3857 6.30573 64.6544 5.77701 65.0557 5.36446C65.4571 4.95191 65.9718 4.6753 66.5308 4.57183Z" fill="#333"/>
    <path fill-rule="evenodd" clip-rule="evenodd" d="M67.374 10.0566V12.1708C68.4677 12.0263 69.4836 11.5133 70.2627 10.7124C71.0418 9.91146 71.5399 8.86784 71.6789 7.74512H69.619C69.5333 8.32552 69.2693 8.86267 68.8655 9.27841C68.4617 9.69416 67.9392 9.96677 67.374 10.0566Z" fill="#333"/>
    <path fill-rule="evenodd" clip-rule="evenodd" d="M66.5308 12.1708V10.0566C65.9717 9.95188 65.4571 9.67443 65.0559 9.26134C64.6547 8.84825 64.386 8.31925 64.2858 7.74512H62.3184C62.4195 8.86675 62.8933 9.91858 63.6602 10.7243C64.4271 11.5301 65.4406 12.0408 66.5308 12.1708Z" fill="#333"/>
    <path fill-rule="evenodd" clip-rule="evenodd" d="M65.6869 7.36171C65.6929 7.53198 65.7315 7.69937 65.8006 7.85431C65.8696 8.00926 65.9677 8.14873 66.0893 8.26471C66.2109 8.3807 66.3536 8.47095 66.5092 8.53029C66.6648 8.58964 66.8303 8.61692 66.9962 8.61057C67.3276 8.60894 67.6464 8.47969 67.8895 8.24844C68.1326 8.0172 68.2823 7.70078 68.309 7.36171C68.3018 7.00669 68.1611 6.66826 67.9165 6.41716C67.6718 6.16607 67.3421 6.02171 66.9962 6.01425C66.8229 6.01024 66.6506 6.04241 66.4898 6.10875C66.3289 6.17509 66.1829 6.27425 66.0604 6.40023C65.938 6.52621 65.8418 6.67638 65.7776 6.84165C65.7134 7.00692 65.6826 7.18385 65.6869 7.36171Z" fill="#333"/>
    <path fill-rule="evenodd" clip-rule="evenodd" d="M63.4425 19.6822C63.7023 19.6829 63.9565 19.6045 64.1728 19.4569C64.3892 19.3092 64.558 19.0991 64.6579 18.8529C64.7578 18.6068 64.7843 18.3358 64.7341 18.0741C64.6838 17.8125 64.5591 17.5721 64.3756 17.3833C64.1921 17.1945 63.9582 17.0658 63.7035 17.0135C63.4487 16.9612 63.1846 16.9876 62.9445 17.0895C62.7044 17.1914 62.4991 17.3641 62.3547 17.5858C62.2103 17.8074 62.1332 18.0681 62.1332 18.3348C62.1288 18.5126 62.1597 18.6896 62.2239 18.8548C62.2881 19.0201 62.3843 19.1702 62.5067 19.2962C62.6291 19.4222 62.7752 19.5214 62.936 19.5877C63.0969 19.6541 63.2692 19.6862 63.4425 19.6822Z" fill="#333"/>
    <path fill-rule="evenodd" clip-rule="evenodd" d="M42.1279 9.47959L43.9993 8.70906C44.0918 8.70906 44.1843 8.51555 44.0918 8.32201L42.1279 3.20978C42.1279 3.01625 41.9393 3.01624 41.7507 3.01624L39.9719 3.78672C39.7833 3.88166 39.6908 3.98025 39.7833 4.15188L41.7472 9.26411C41.8468 9.47955 41.9393 9.57453 42.1279 9.47959Z" fill="#333"/>
    <path fill-rule="evenodd" clip-rule="evenodd" d="M43.9028 11.6924H41.9389C41.8655 11.6959 41.796 11.7275 41.744 11.7808C41.692 11.8342 41.6613 11.9055 41.6579 11.9809L39.975 22.6618C39.9697 22.7009 39.9733 22.7408 39.9856 22.7783C39.9978 22.8158 40.0184 22.8499 40.0456 22.8778C40.0728 22.9058 40.106 22.9269 40.1426 22.9394C40.1791 22.952 40.2179 22.9557 40.2561 22.9502H42.22C42.2581 22.9557 42.297 22.952 42.3335 22.9394C42.3701 22.9269 42.4033 22.9058 42.4305 22.8778C42.4577 22.8499 42.4783 22.8158 42.4905 22.7783C42.5028 22.7408 42.5064 22.7009 42.5011 22.6618L44.1839 11.9809C44.1804 11.9055 44.1497 11.8342 44.0977 11.7808C44.0457 11.7275 43.9762 11.6959 43.9028 11.6924Z" fill="#333"/>
    <path fill-rule="evenodd" clip-rule="evenodd" d="M105.25 4.86033V4.28335C105.241 4.13402 105.179 3.99321 105.076 3.88707C104.974 3.78094 104.837 3.71674 104.691 3.70641H97.0174V3.00163C97.0174 2.71316 96.8288 2.63647 96.5477 2.63647H94.8649C94.5091 2.63647 94.3028 2.7022 94.3028 3.00163V3.70641H86.5362C86.4003 3.7212 86.2753 3.78966 86.1876 3.89733C86.1 4.005 86.0566 4.14342 86.0666 4.28335V18.5246L84.8498 21.318H68.4023V17.3707H71.3979C71.4904 17.3707 71.5829 17.1808 71.5829 17.0822V16.0305C71.5796 15.9813 71.559 15.935 71.525 15.9001C71.491 15.8652 71.4459 15.8441 71.3979 15.8407H68.4023V14.2047H71.3979C71.4904 14.2047 71.5829 14.1061 71.5829 13.9163V12.8573C71.5829 12.7587 71.4904 12.5688 71.3979 12.5688H62.5996C62.5264 12.5732 62.4574 12.605 62.4055 12.6582C62.3537 12.7114 62.3227 12.7822 62.3185 12.8573V13.9163C62.3132 13.9554 62.3168 13.9953 62.329 14.0328C62.3413 14.0703 62.3618 14.1044 62.3891 14.1323C62.4163 14.1603 62.4495 14.1814 62.486 14.194C62.5225 14.2065 62.5614 14.2102 62.5996 14.2047H65.8763V21.3254H64.752V19.7844C64.752 19.6895 64.6595 19.5908 64.567 19.4959C64.475 19.7242 64.319 19.9193 64.1189 20.0566C63.9188 20.1939 63.6834 20.2671 63.4427 20.2671C63.202 20.2671 62.9668 20.1939 62.7666 20.0566C62.5665 19.9193 62.4106 19.7242 62.3185 19.4959C62.226 19.5908 62.1335 19.6895 62.1335 19.7844V21.3254H56.0853V17.2721H60.1091C60.1473 17.2776 60.1862 17.2739 60.2227 17.2613C60.2592 17.2487 60.2924 17.2276 60.3196 17.1997C60.3469 17.1717 60.3674 17.1377 60.3797 17.1002C60.3919 17.0627 60.3955 17.0228 60.3902 16.9836V15.9246C60.3955 15.8855 60.3919 15.8456 60.3797 15.8081C60.3674 15.7706 60.3469 15.7365 60.3196 15.7086C60.2924 15.6806 60.2592 15.6595 60.2227 15.647C60.1862 15.6344 60.1473 15.6307 60.1091 15.6362H56.0711V12.1708H60.0949C60.1331 12.1763 60.1719 12.1726 60.2084 12.16C60.245 12.1474 60.2782 12.1264 60.3054 12.0984C60.3326 12.0704 60.3532 12.0363 60.3654 11.9989C60.3777 11.9614 60.3813 11.9215 60.376 11.8823V10.8234C60.3813 10.7842 60.3777 10.7443 60.3654 10.7068C60.3532 10.6693 60.3326 10.6353 60.3054 10.6073C60.2782 10.5794 60.245 10.5583 60.2084 10.5457C60.1719 10.5331 60.1331 10.5294 60.0949 10.5349H56.0711V7.16812H60.0949C60.1681 7.16376 60.2371 7.13197 60.2889 7.07879C60.3407 7.0256 60.3717 6.95472 60.376 6.87963V5.72575C60.376 5.63081 60.2835 5.53221 60.0949 5.53221H56.0711V3.00163C56.0711 2.8081 55.9786 2.63647 55.79 2.63647H53.8261C53.6376 2.63647 53.5451 2.79714 53.5451 3.00163V5.53221H49.6208L50.368 3.31932C50.3638 3.24482 50.3334 3.17446 50.2823 3.12136C50.2312 3.06826 50.163 3.03608 50.0905 3.03088H47.842C47.7758 3.05196 47.7157 3.08925 47.6667 3.1395C47.6178 3.18976 47.5814 3.25145 47.5609 3.31932L46.7213 5.53221C46.7213 5.6308 46.6252 5.63081 46.6252 5.72575V5.8207L45.1274 9.76805C45.1221 9.80721 45.1257 9.84712 45.1379 9.88461C45.1502 9.9221 45.1707 9.95615 45.1979 9.98411C45.2252 10.0121 45.2584 10.0332 45.2949 10.0458C45.3314 10.0583 45.3703 10.062 45.4084 10.0565H46.6252V22.6619C46.6199 22.701 46.6235 22.7409 46.6357 22.7784C46.648 22.8159 46.6685 22.8499 46.6958 22.8779C46.723 22.9059 46.7562 22.9269 46.7927 22.9395C46.8292 22.9521 46.8681 22.9558 46.9063 22.9503H86.6216C86.8101 22.9503 86.9026 22.9503 86.9026 22.8517L88.493 18.908V5.44092H104.684C104.832 5.43221 104.971 5.36825 105.075 5.26119C105.179 5.15414 105.242 5.01148 105.25 4.86033ZM53.5344 21.3144H48.9591V17.2721H53.5344V21.3144ZM53.5344 15.6362H48.9591V12.1708H53.5344V15.6362ZM53.5344 10.524H48.9591V7.15715H53.5344V10.524Z" fill="#333"/>
    <path fill-rule="evenodd" clip-rule="evenodd" d="M105.531 14.0003H99.2621V11.7874C99.2657 11.7235 99.2561 11.6595 99.234 11.5996C99.2119 11.5397 99.1777 11.4852 99.1338 11.4398C99.0898 11.3943 99.037 11.3588 98.9788 11.3357C98.9207 11.3125 98.8584 11.3022 98.796 11.3054H97.1096C97.0472 11.3017 96.9846 11.3115 96.9262 11.3345C96.8677 11.3574 96.8147 11.3929 96.7707 11.4385C96.7266 11.4841 96.6924 11.5387 96.6705 11.5989C96.6486 11.6591 96.6394 11.7233 96.6436 11.7874V14.0003H93.833C93.0858 13.8067 93.2744 13.2298 93.2744 13.2298L95.0533 9.94334H104.976C105.111 9.92767 105.235 9.85884 105.322 9.75127C105.409 9.64369 105.452 9.50576 105.442 9.36641V8.78947C105.446 8.72552 105.436 8.66153 105.414 8.60163C105.392 8.54173 105.358 8.48725 105.314 8.44178C105.27 8.39632 105.217 8.36089 105.159 8.33774C105.1 8.3146 105.038 8.30425 104.976 8.30743H95.9854L96.8286 6.8468C96.8244 6.77171 96.7934 6.70082 96.7416 6.64763C96.6897 6.59445 96.6207 6.5627 96.5475 6.55835H94.4129C94.34 6.56347 94.2713 6.59549 94.2197 6.64853C94.168 6.70156 94.1368 6.77197 94.1318 6.8468L93.3847 8.30743H90.0155C89.8791 8.29717 89.7443 8.34176 89.6394 8.43171C89.5345 8.52166 89.4678 8.64995 89.4534 8.78947V9.36641C89.4633 9.51605 89.5258 9.65693 89.6291 9.76299C89.7324 9.86905 89.8697 9.9331 90.0155 9.94334H92.449L90.1791 14.0003V15.1542C90.175 15.2183 90.1842 15.2825 90.2061 15.3427C90.228 15.4028 90.2621 15.4576 90.3062 15.5032C90.3503 15.5487 90.4033 15.5842 90.4617 15.6071C90.5202 15.63 90.5827 15.64 90.6452 15.6362H96.6365V17.944H89.9977C89.8519 17.9542 89.7146 18.0183 89.6113 18.1244C89.5079 18.2305 89.4455 18.3713 89.4355 18.5209V19.1016C89.45 19.2408 89.5168 19.3687 89.6218 19.4581C89.7268 19.5474 89.8617 19.5912 89.9977 19.5799H96.6436V22.4683C96.6394 22.5324 96.6486 22.5967 96.6705 22.6568C96.6924 22.717 96.7266 22.7717 96.7707 22.8173C96.8147 22.8629 96.8677 22.8983 96.9262 22.9213C96.9846 22.9442 97.0472 22.9541 97.1096 22.9503H98.796C98.8584 22.9535 98.9207 22.9432 98.9788 22.9201C99.037 22.8969 99.0898 22.8614 99.1338 22.816C99.1777 22.7705 99.2119 22.7161 99.234 22.6562C99.2561 22.5963 99.2657 22.5323 99.2621 22.4683V19.5799H104.972C105.034 19.5836 105.097 19.5738 105.155 19.5511C105.213 19.5283 105.266 19.4932 105.31 19.4481C105.354 19.4029 105.388 19.3486 105.41 19.2889C105.432 19.2292 105.442 19.1654 105.438 19.1016V18.5209C105.448 18.3816 105.406 18.2436 105.319 18.1361C105.232 18.0285 105.108 17.9597 104.972 17.944H99.2621V15.6362H105.531C105.594 15.6399 105.656 15.63 105.715 15.6071C105.773 15.5841 105.827 15.5488 105.871 15.5032C105.915 15.4577 105.95 15.4031 105.972 15.343C105.994 15.2828 106.004 15.2184 106 15.1542V14.5699C106.009 14.4312 105.964 14.2946 105.877 14.1885C105.789 14.0825 105.666 14.015 105.531 14.0003Z" fill="#333"/>
    <path fill-rule="evenodd" clip-rule="evenodd" d="M82.6258 20.6388C83.0954 20.3503 82.8144 19.6784 82.8144 19.6784L79.0716 15.9246L77.7588 17.5605L81.0355 20.6388H82.6258Z" fill="#333"/>
    <path d="M41.7077 29.9504C41.2505 30.5427 40.6968 31.0492 40.0712 31.4476C39.9704 31.3446 39.8635 31.2483 39.751 31.1591C40.3491 30.8136 40.8711 30.3449 41.2844 29.7824L41.7077 29.9504ZM44.031 26.7626V29.2712H40.3416V26.7626H44.031ZM40.7471 28.8696H43.5934V27.1569H40.7471V28.8696ZM43.0206 29.7678C43.5802 30.1872 44.0996 30.6604 44.5717 31.181L44.216 31.433C43.7553 30.8957 43.2441 30.4064 42.6897 29.9723L43.0206 29.7678Z" fill="#666"/>
    <path d="M56.736 27.6791C56.736 27.6791 56.736 27.8361 56.736 27.8982C56.6471 30.0892 56.5759 30.8852 56.3802 31.1481C56.3256 31.2167 56.2566 31.2716 56.1783 31.3089C56.1001 31.3462 56.0146 31.3649 55.9284 31.3636C55.6429 31.383 55.3565 31.383 55.071 31.3636C55.053 31.2131 55.0058 31.0678 54.9322 30.9363C55.2112 30.9651 55.4915 30.9785 55.7718 30.9765C55.8146 30.982 55.8581 30.9772 55.8988 30.9626C55.9395 30.9481 55.9764 30.9241 56.0067 30.8925C56.1668 30.7245 56.2486 29.9833 56.3268 28.1027H54.4661C54.4042 28.7631 54.196 29.4002 53.8575 29.9653C53.519 30.5305 53.0591 31.0088 52.5129 31.3636C52.4252 31.2456 52.318 31.1443 52.1963 31.0642C52.7047 30.7478 53.1362 30.3166 53.458 29.8035C53.7798 29.2904 53.9834 28.7087 54.0535 28.1027H52.3493V27.6901H54.0961C54.0961 27.4564 54.1175 27.2336 54.1175 27.0218V26.3718H54.5195V27.0291C54.5195 27.2409 54.5195 27.4564 54.5017 27.6901L56.736 27.6791ZM53.3241 27.5002C53.1695 27.1985 52.9809 26.9166 52.762 26.6603L53.1178 26.5033C53.339 26.7543 53.5356 27.0271 53.7048 27.3176L53.3241 27.5002ZM55.3058 30.0271C55.0997 29.6365 54.854 29.2693 54.5729 28.9316L54.9037 28.7636C55.1952 29.0847 55.4484 29.4402 55.658 29.8226L55.3058 30.0271Z" fill="#666"/>
    <path d="M65.4202 28.7162C65.5661 28.9024 66.0179 29.578 66.1318 29.7496L65.8614 30.0673C65.7332 29.7794 65.5894 29.499 65.4309 29.2274V31.4184H65.0751V29.3406C64.9294 29.8302 64.7263 30.2999 64.4703 30.7392C64.4099 30.5938 64.3385 30.4533 64.2568 30.3193C64.5928 29.7852 64.8472 29.2015 65.0111 28.5884H64.2995V28.1977H65.0644V26.3719H65.4202V28.1977H66.0215V28.5811H65.4202V28.7162ZM64.6411 27.9859C64.5905 27.5687 64.4913 27.1593 64.3458 26.7663L64.6233 26.7005C64.7754 27.0888 64.8806 27.4947 64.9364 27.9092L64.6411 27.9859ZM65.4914 27.9092C65.6337 27.5042 65.7525 27.0908 65.8471 26.6713L66.1745 26.7553C66.0539 27.1743 65.9114 27.5863 65.7475 27.9896L65.4914 27.9092ZM69.2341 28.1247V28.4423H66.2065V28.1247H67.4944V27.7595H66.4947V27.4601H67.4944V27.1205H66.3595V26.8028H67.4944V26.3573H67.8786V26.8028H69.0918V27.1205H67.8786V27.4601H68.978V27.7595H67.8786V28.1247H69.2341ZM68.8784 30.9912C68.8784 31.192 68.8357 31.2942 68.6934 31.3563C68.4613 31.4179 68.2207 31.4389 67.9818 31.4184C67.9579 31.2996 67.9196 31.1843 67.868 31.0751H68.3981C68.4692 31.0751 68.487 31.0532 68.487 30.9912V30.5128H66.918V31.4147H66.5374V28.7747H68.8641L68.8784 30.9912ZM66.9323 29.0923V29.505H68.5012V29.0923H66.9323ZM68.5012 30.217V29.808H66.9323V30.217H68.5012Z" fill="#666"/>
    <path d="M77.314 28.0151C77.1023 27.5783 76.8572 27.1596 76.5811 26.7626L76.9368 26.5946C77.2172 26.9775 77.467 27.3829 77.684 27.807L77.314 28.0151ZM76.6024 30.9693C76.9146 30.3701 77.188 29.7504 77.4207 29.1142L77.7765 29.3151C77.5488 29.9358 77.2499 30.6406 77.0009 31.1701L76.6024 30.9693ZM81.473 31.035H78.6837V31.433H78.303V28.1904C78.1492 28.4403 77.9716 28.6739 77.7729 28.8878C77.684 28.7785 77.5838 28.6793 77.474 28.5921C78.0573 27.9728 78.4922 27.2227 78.7442 26.4011L79.0999 26.4997C79.007 26.7894 78.8952 27.0724 78.7655 27.3469H80.0036C79.8924 27.0687 79.7554 26.8021 79.5945 26.5508L79.9502 26.3901C80.1201 26.6318 80.2621 26.8928 80.3736 27.1679L80.0392 27.3469H81.3662V27.712H80.2171V28.4423H81.2595V28.8075H80.2171V29.5378H81.2524V29.903H80.2171V30.6552H81.4765L81.473 31.035ZM79.8186 27.701H78.6837V28.4314H79.8186V27.701ZM79.8186 28.7965H78.6837V29.5268H79.8186V28.7965ZM78.6837 30.6516H79.8186V29.9066H78.6837V30.6516Z" fill="#666"/>
    <path d="M91.4736 27.0511C91.3989 27.3286 91.3063 27.617 91.2245 27.858H93.441V30.9071C93.441 31.1481 93.3948 31.2723 93.2347 31.3271C92.9662 31.3957 92.6888 31.4203 92.4128 31.4001C92.3839 31.2646 92.336 31.1343 92.2705 31.013C92.58 31.013 92.8504 31.013 92.9322 31.013C93.0141 31.013 93.0425 30.9875 93.0425 30.9035V28.2487H92.1175V31.2467H91.7226V28.2487H90.826V31.2467H90.4311V28.2487H89.5737V31.433H89.1681V27.858H90.8011C90.8723 27.6134 90.9399 27.3103 90.9897 27.0511H88.8906V26.6384H93.7363V27.0511H91.4736Z" fill="#666"/>
    <path d="M106 30.8524V31.254H101.208V30.8524H103.406V29.4392H101.795V29.0375H103.406V27.8252H102.129C101.974 28.1486 101.783 28.4525 101.56 28.7308C101.449 28.6384 101.33 28.5565 101.204 28.4862C101.687 27.8915 102.031 27.1905 102.207 26.4376L102.613 26.5252C102.532 26.8289 102.431 27.1266 102.311 27.4163H103.413V26.35H103.823V27.4163H105.765V27.8252H103.823V29.0375H105.566V29.4392H103.823V30.8524H106Z" fill="#666"/>
    <path fill-rule="evenodd" clip-rule="evenodd" d="M12.8253 15.3842L13.7112 15.019C13.7574 15.019 13.8001 14.9277 13.7574 14.8364L12.8253 12.43C12.8253 12.3387 12.7399 12.3387 12.651 12.3387L11.8078 12.7039C11.7188 12.7477 11.6761 12.7952 11.7188 12.8865L12.651 15.2929C12.6937 15.3842 12.7399 15.428 12.8253 15.3842Z" fill="#E51600"/>
    <path fill-rule="evenodd" clip-rule="evenodd" d="M13.6869 16.4285H12.7583C12.7236 16.4302 12.6906 16.4449 12.6657 16.4697C12.6408 16.4946 12.6257 16.528 12.6231 16.5636L11.8262 21.6028C11.8238 21.6216 11.8257 21.6407 11.8317 21.6586C11.8377 21.6765 11.8476 21.6928 11.8606 21.7062C11.8737 21.7196 11.8895 21.7297 11.907 21.7358C11.9245 21.742 11.943 21.7439 11.9613 21.7416H12.8899C12.9081 21.7441 12.9266 21.7422 12.944 21.7361C12.9613 21.7299 12.977 21.7197 12.9898 21.7062C13.0026 21.6927 13.0121 21.6763 13.0177 21.6584C13.0232 21.6404 13.0245 21.6214 13.0216 21.6028L13.8185 16.5636C13.8168 16.5283 13.8024 16.495 13.778 16.47C13.7537 16.445 13.7212 16.4302 13.6869 16.4285Z" fill="#E51600"/>
    <path fill-rule="evenodd" clip-rule="evenodd" d="M21.4218 20.9674H19.4187V19.0613H21.3221C21.34 19.0628 21.3581 19.0607 21.3752 19.0551C21.3923 19.0495 21.4081 19.0404 21.4218 19.0284V18.3236C21.4084 18.311 21.3927 18.3012 21.3756 18.295C21.3585 18.2887 21.3403 18.286 21.3221 18.2871H19.4187V16.6548H21.3221C21.3404 16.6569 21.3588 16.6547 21.3761 16.6484C21.3933 16.642 21.4089 16.6317 21.4218 16.6183V15.9172C21.4089 15.9038 21.3933 15.8935 21.3761 15.8872C21.3588 15.8809 21.3404 15.8786 21.3221 15.8807H19.4187V14.2922H21.3221C21.3415 14.2925 21.3607 14.288 21.378 14.2791C21.3954 14.2702 21.4104 14.2572 21.4218 14.2411V13.5473C21.3917 13.5289 21.3571 13.5201 21.3221 13.5218H19.4187V12.3971C19.4219 12.3786 19.4206 12.3597 19.4151 12.3418C19.4096 12.324 19.4 12.3077 19.3871 12.2945C19.3742 12.2812 19.3584 12.2713 19.341 12.2657C19.3236 12.26 19.3051 12.2588 19.2871 12.262H18.3585C18.3406 12.2588 18.3221 12.26 18.3047 12.2657C18.2873 12.2713 18.2715 12.2812 18.2586 12.2945C18.2457 12.3077 18.2361 12.324 18.2305 12.3418C18.225 12.3597 18.2238 12.3786 18.2269 12.3971V13.5218H16.3662L16.722 12.4774C16.7202 12.4412 16.7054 12.4069 16.6805 12.3813C16.6555 12.3556 16.6221 12.3404 16.5868 12.3387H15.5194C15.488 12.3488 15.4596 12.3668 15.4366 12.391C15.4136 12.4152 15.3969 12.4449 15.3878 12.4774L14.9893 13.5218C14.9893 13.5656 14.9431 13.5656 14.9431 13.6131V13.6569L14.2315 15.5192C14.2291 15.5378 14.2309 15.5568 14.2369 15.5746C14.2429 15.5924 14.2528 15.6086 14.266 15.6217C14.2791 15.6348 14.2951 15.6446 14.3126 15.6503C14.3301 15.6559 14.3486 15.6573 14.3667 15.6543H14.9395V21.6027C14.9372 21.6215 14.9391 21.6406 14.9451 21.6586C14.9511 21.6765 14.9609 21.6927 14.974 21.7061C14.987 21.7195 15.0029 21.7297 15.0204 21.7358C15.0378 21.7419 15.0564 21.7439 15.0747 21.7415H21.4111L21.4218 20.9674ZM18.2198 20.9674H16.0496V19.0613H18.2198V20.9674ZM18.2198 18.2871H16.0496V16.6548H18.2198V18.2871ZM18.2198 15.8807H16.0496V14.2922H18.2198V15.8807Z" fill="#E51600"/>
    <path d="M31.4759 17.7029C31.3027 21.5195 29.7478 25.1323 27.1155 27.8339C24.4833 30.5356 20.9634 32.1315 17.2449 32.3093V29.5926C20.2643 29.4179 23.1152 28.1079 25.2533 25.9127C27.3914 23.7176 28.6668 20.7911 28.8361 17.692H27.3205C27.1569 20.3811 26.0433 22.9166 24.1884 24.8231C22.3335 26.7297 19.8647 27.8763 17.2449 28.0479V26.5142L18.1414 26.8319L16.5582 24.2028L14.9715 26.8319L15.868 26.5142V28.0479C13.25 27.8766 10.7826 26.7315 8.92792 24.8272C7.07324 22.923 5.9585 20.3901 5.79245 17.7029H4.27684C4.44532 20.8023 5.72051 23.7293 7.85876 25.9246C9.99701 28.1199 12.8484 29.4296 15.868 29.6035V32.3203C12.1495 32.1425 8.62961 30.5465 5.99739 27.8449C3.36516 25.1432 1.81022 21.5305 1.63699 17.7139H0.0146484C0.212019 22.081 2.04119 26.2022 5.1221 29.2211C8.20301 32.24 12.2987 33.9245 16.5582 33.9245C20.8177 33.9245 24.9135 32.24 27.9944 29.2211C31.0753 26.2022 32.9045 22.081 33.1018 17.7139L31.4759 17.7029Z" fill="#E51600"/>
    <path d="M31.4759 16.2933H28.8432C28.6729 13.1937 27.3961 10.2671 25.2566 8.07257C23.1171 5.878 20.2649 4.5693 17.2449 4.39646V1.67965C20.9645 1.85759 24.4854 3.45458 27.1178 6.15775C29.7502 8.86092 31.3044 12.4755 31.4759 16.2933ZM15.8609 1.68696V4.40377C12.8421 4.57834 9.99162 5.8878 7.85361 8.0822C5.7156 10.2766 4.43979 13.2022 4.2697 16.3006H1.62273C1.79292 12.4779 3.34935 8.85857 5.98638 6.15334C8.62342 3.44811 12.1505 1.85242 15.8751 1.67965L15.8609 1.68696ZM1.62984 17.7138H7.28313L6.97361 18.634L9.53519 17.0091L6.97361 15.3804L7.28313 16.3006H5.78887C5.9565 13.6144 7.07185 11.0829 8.92629 9.1795C10.7807 7.27615 13.2472 6.1314 15.8645 5.95935V7.493L14.9679 7.17531L16.5547 9.80444L18.1379 7.17531L17.2413 7.493V5.95935C19.8583 6.13217 22.3243 7.27715 24.1786 9.18035C26.0329 11.0835 27.1485 13.6147 27.3169 16.3006H25.8226L26.1322 15.3804L23.5706 17.0091L26.1322 18.634L25.8226 17.7138H33.1125C33.1125 17.4801 33.1125 17.2464 33.1125 17.0091C33.1447 14.7556 32.74 12.5181 31.9221 10.4266C31.1041 8.33514 29.8892 6.43143 28.348 4.8262C26.8068 3.22098 24.97 1.94626 22.9445 1.07619C20.919 0.20612 18.7451 -0.241943 16.5493 -0.241943C14.3536 -0.241943 12.1797 0.20612 10.1542 1.07619C8.12863 1.94626 6.29185 3.22098 4.75062 4.8262C3.2094 6.43143 1.9945 8.33514 1.17656 10.4266C0.358627 12.5181 -0.0460247 14.7556 -0.013846 17.0091C-0.013846 17.2428 -0.013846 17.4765 -0.013846 17.7102L1.62984 17.7138Z" fill="#E51600"/>
  </g>
  <defs>
    <clipPath id="9d0vjqt5r__clip0_96_4089">
      <path fill="#fff" d="M0 0H106V34H0z"/>
    </clipPath>
  </defs>
</svg>
