<?xml version="1.0" standalone="no"?><!DOCTYPE svg PUBLIC "-//W3C//DTD SVG 1.1//EN" "http://www.w3.org/Graphics/SVG/1.1/DTD/svg11.dtd"><svg t="1703648443656" class="icon" viewBox="0 0 1024 1024" version="1.1" xmlns="http://www.w3.org/2000/svg" p-id="3198" xmlns:xlink="http://www.w3.org/1999/xlink" width="200" height="200"><path d="M51.2 512a460.8 460.8 0 1 0 921.6 0 460.8 460.8 0 0 0-921.6 0z" fill="#E5E6EB" p-id="3199"></path><path d="M143.36 512a368.64 368.64 0 1 1 737.28 0 368.64 368.64 0 0 1-737.28 0z m368.64 460.8a460.8 460.8 0 1 0 0-921.6 460.8 460.8 0 0 0 0 921.6z" fill="#333333" p-id="3200"></path><path d="M325.632 428.032a46.336 46.336 0 0 1 65.536 0l133.632 133.632 133.632-133.632a46.336 46.336 0 1 1 65.536 65.536l-166.4 166.4a46.336 46.336 0 0 1-65.536 0L325.632 493.568a46.336 46.336 0 0 1 0-65.536z" fill="#333333" p-id="3201"></path></svg>